<svg width="28" height="25" viewBox="0 0 28 25" fill="none" xmlns="http://www.w3.org/2000/svg">
<path d="M0.666676 0.833313H3.33334C4.06668 0.833313 4.66668 1.43331 4.66668 2.16665V14.1666C4.66668 14.9 4.06668 15.5 3.33334 15.5H0.666676V0.833313ZM27.1067 10.3266C27.2533 10.66 27.3333 11.02 27.3333 11.3933V12.8333C27.3333 14.3 26.1333 15.5 24.6667 15.5H17.3333L18.56 21.7C18.6267 21.9933 18.5867 22.3133 18.4533 22.58C18.1467 23.18 17.76 23.7266 17.28 24.2066L16.6667 24.8333L8.12001 16.2866C7.61334 15.78 7.33334 15.1 7.33334 14.3933V3.95331C7.33334 2.23331 8.73334 0.833313 10.4533 0.833313H21.2533C22.2 0.833313 23.0667 1.32665 23.5467 2.12665L27.1067 10.3266Z" fill="#EB5757"/>
</svg>
