<?xml version="1.0" encoding="UTF-8"?>
<!DOCTYPE svg PUBLIC "-//W3C//DTD SVG 1.1//EN" "http://www.w3.org/Graphics/SVG/1.1/DTD/svg11.dtd">
<svg xmlns="http://www.w3.org/2000/svg" version="1.1" width="1030px" height="584px" style="shape-rendering:geometricPrecision; text-rendering:geometricPrecision; image-rendering:optimizeQuality; fill-rule:evenodd; clip-rule:evenodd" xmlns:xlink="http://www.w3.org/1999/xlink">
<g><path style="opacity:0.965" fill="#ff954c" d="M 825.5,9.5 C 615.832,8.16775 406.166,8.16775 196.5,9.5C 199.577,8.14396 202.91,7.31063 206.5,7C 409.5,6.33333 612.5,6.33333 815.5,7C 819.09,7.31063 822.423,8.14396 825.5,9.5 Z"/></g>
<g><path style="opacity:0.995" fill="#ff6d04" d="M 825.5,9.5 C 831.219,10.2573 836.552,11.9239 841.5,14.5C 843.935,16.8913 846.935,18.558 850.5,19.5C 852.947,19.615 854.947,20.615 856.5,22.5C 857.539,24.5311 859.205,25.8645 861.5,26.5C 865.735,29.0067 869.069,32.3401 871.5,36.5C 875.534,41.2329 878.534,46.5662 880.5,52.5C 881.325,53.3857 882.325,53.719 883.5,53.5C 884.674,54.5137 885.34,55.847 885.5,57.5C 885.69,60.855 886.69,63.855 888.5,66.5C 888.5,66.8333 888.5,67.1667 888.5,67.5C 888.502,71.8741 889.502,75.8741 891.5,79.5C 891.5,171.5 891.5,263.5 891.5,355.5C 890.883,355.611 890.383,355.944 890,356.5C 888.985,360.44 888.485,364.44 888.5,368.5C 888.5,368.833 888.5,369.167 888.5,369.5C 886.926,371.102 886.259,373.102 886.5,375.5C 886.608,377.514 885.942,379.18 884.5,380.5C 882.331,382.34 880.998,384.674 880.5,387.5C 880.5,387.833 880.5,388.167 880.5,388.5C 878.952,388.821 878.285,389.821 878.5,391.5C 876.866,392.207 875.532,393.373 874.5,395C 873.552,395.483 872.552,395.649 871.5,395.5C 871.5,396.833 871.5,398.167 871.5,399.5C 871.167,401.833 869.833,403.167 867.5,403.5C 865.833,404.5 864.5,405.833 863.5,407.5C 862.833,408.833 861.833,409.833 860.5,410.5C 858.027,410.088 856.694,411.088 856.5,413.5C 854.947,415.385 852.947,416.385 850.5,416.5C 848.801,416.34 847.134,416.506 845.5,417C 845.833,417.333 846.167,417.667 846.5,418C 840.933,419.124 835.933,421.29 831.5,424.5C 830.791,425.404 829.791,425.737 828.5,425.5C 825.612,424.99 823.279,425.656 821.5,427.5C 818.946,428.388 816.279,428.721 813.5,428.5C 795.671,427.338 777.671,427.171 759.5,428C 758.944,428.383 758.611,428.883 758.5,429.5C 749.076,437.246 739.076,444.246 728.5,450.5C 725.281,451.069 722.948,452.736 721.5,455.5C 713.443,461.555 705.109,467.221 696.5,472.5C 694.336,472.721 692.67,473.721 691.5,475.5C 691.167,476.5 690.5,477.167 689.5,477.5C 687.368,477.554 686.035,478.554 685.5,480.5C 683.062,482.535 680.395,484.201 677.5,485.5C 675.973,485.427 674.973,486.094 674.5,487.5C 671.525,490.323 668.192,492.656 664.5,494.5C 662.973,494.427 661.973,495.094 661.5,496.5C 658.802,496.845 656.802,498.178 655.5,500.5C 651.465,503.857 647.132,506.857 642.5,509.5C 640.147,510.34 638.147,511.674 636.5,513.5C 636.167,514.5 635.5,515.167 634.5,515.5C 632.62,515.229 631.287,515.896 630.5,517.5C 627.933,520.362 624.933,522.695 621.5,524.5C 619.821,524.285 618.821,524.952 618.5,526.5C 614.705,528.651 611.038,530.985 607.5,533.5C 606.06,534.363 604.726,534.363 603.5,533.5C 602.305,535.121 601.305,536.787 600.5,538.5C 592.348,544.411 584.015,550.078 575.5,555.5C 573.147,556.34 571.147,557.674 569.5,559.5C 564.783,563.55 559.783,567.217 554.5,570.5C 552.821,570.285 551.821,570.952 551.5,572.5C 550.167,573.167 548.833,573.833 547.5,574.5C 545.265,574.205 543.265,574.539 541.5,575.5C 537.835,575.498 534.835,574.165 532.5,571.5C 531.147,568.858 530.481,566.024 530.5,563C 531.394,554.455 532.394,545.955 533.5,537.5C 533.366,535.708 533.699,534.042 534.5,532.5C 537.018,527.939 538.018,522.939 537.5,517.5C 538.849,508.105 540.516,498.772 542.5,489.5C 543.376,489.631 544.043,489.298 544.5,488.5C 546.947,482.764 547.947,476.764 547.5,470.5C 547.5,470.167 547.5,469.833 547.5,469.5C 550.018,464.939 551.018,459.939 550.5,454.5C 551.223,446.277 552.89,438.277 555.5,430.5C 556.404,429.791 556.737,428.791 556.5,427.5C 439.999,427.167 323.665,427.5 207.5,428.5C 205.05,428.702 202.717,428.369 200.5,427.5C 200.03,426.307 199.03,425.64 197.5,425.5C 195.182,425.003 192.848,424.67 190.5,424.5C 188.485,423.076 186.152,422.41 183.5,422.5C 181.847,422.34 180.514,421.674 179.5,420.5C 178.07,419.463 176.403,418.796 174.5,418.5C 174.027,417.094 173.027,416.427 171.5,416.5C 169.067,416.727 167.401,415.727 166.5,413.5C 164.867,409.442 161.867,406.942 157.5,406C 155.886,403.873 153.886,402.373 151.5,401.5C 151.5,399.5 150.5,398.5 148.5,398.5C 144.685,394.353 141.685,389.686 139.5,384.5C 139.206,381.246 137.873,378.579 135.5,376.5C 135.5,376.167 135.5,375.833 135.5,375.5C 135.318,371.511 134.318,367.844 132.5,364.5C 131.549,363.081 131.216,361.415 131.5,359.5C 131.523,265.257 131.523,170.923 131.5,76.5C 131.752,71.3146 132.752,66.3146 134.5,61.5C 135.15,61.1961 135.817,60.8627 136.5,60.5C 137.704,57.5559 138.704,54.5559 139.5,51.5C 140.169,48.1511 141.836,45.4844 144.5,43.5C 149.472,38.1929 154.472,32.8595 159.5,27.5C 164.688,21.7365 171.021,17.7365 178.5,15.5C 182.533,14.9751 186.2,13.6418 189.5,11.5C 191.515,10.0762 193.848,9.40953 196.5,9.5C 406.166,8.16775 615.832,8.16775 825.5,9.5 Z"/></g>
<g><path style="opacity:0.384" fill="#ff934b" d="M 189.5,11.5 C 186.2,13.6418 182.533,14.9751 178.5,15.5C 181.6,12.7905 185.267,11.4571 189.5,11.5 Z"/></g>
<g><path style="opacity:0.165" fill="#ff9248" d="M 841.5,14.5 C 844.987,15.4076 847.987,17.0743 850.5,19.5C 846.935,18.558 843.935,16.8913 841.5,14.5 Z"/></g>
<g><path style="opacity:0.404" fill="#ff9c57" d="M 856.5,22.5 C 858.754,23.1237 860.421,24.457 861.5,26.5C 859.205,25.8645 857.539,24.5311 856.5,22.5 Z"/></g>
<g><path style="opacity:0.345" fill="#ff964c" d="M 159.5,27.5 C 154.472,32.8595 149.472,38.1929 144.5,43.5C 148.118,36.8818 153.118,31.5485 159.5,27.5 Z"/></g>
<g><path style="opacity:1" fill="#ffe8d7" d="M 819.5,33.5 C 613.5,32.1667 407.5,32.1667 201.5,33.5C 203.631,32.6862 205.964,32.1862 208.5,32C 409.833,31.3333 611.167,31.3333 812.5,32C 815.036,32.1862 817.369,32.6862 819.5,33.5 Z"/></g>
<g><path style="opacity:1" fill="#fefefd" d="M 819.5,33.5 C 843.594,39.4268 858.427,54.4268 864,78.5C 864.824,172.521 864.657,266.521 863.5,360.5C 862.129,362.936 861.129,365.603 860.5,368.5C 851.034,389.587 834.7,401.42 811.5,404C 790.436,404.034 769.436,404.7 748.5,406C 687.471,447.843 626.471,489.677 565.5,531.5C 563.692,530.082 563.025,528.082 563.5,525.5C 570.004,489.146 577.337,452.979 585.5,417C 585.098,410.595 581.765,406.595 575.5,405C 452.833,404.667 330.167,404.333 207.5,404C 180.991,399.158 164.491,383.658 158,357.5C 157.168,263.666 157.334,169.999 158.5,76.5C 159.924,74.4855 160.59,72.1522 160.5,69.5C 166.402,53.9303 177.069,42.9303 192.5,36.5C 195.855,36.3104 198.855,35.3104 201.5,33.5C 407.5,32.1667 613.5,32.1667 819.5,33.5 Z"/></g>
<g><path style="opacity:1" fill="#ffd5b8" d="M 201.5,33.5 C 198.855,35.3104 195.855,36.3104 192.5,36.5C 195.084,34.5275 198.084,33.5275 201.5,33.5 Z"/></g>
<g><path style="opacity:0.941" fill="#ff8332" d="M 871.5,36.5 C 873.74,37.5676 875.574,39.2342 877,41.5C 879.465,45.4373 881.632,49.4373 883.5,53.5C 882.325,53.719 881.325,53.3857 880.5,52.5C 878.534,46.5662 875.534,41.2329 871.5,36.5 Z"/></g>
<g><path style="opacity:0.776" fill="#ff934b" d="M 139.5,51.5 C 138.704,54.5559 137.704,57.5559 136.5,60.5C 135.817,60.8627 135.15,61.1961 134.5,61.5C 135.421,57.701 137.088,54.3677 139.5,51.5 Z"/></g>
<g><path style="opacity:0.298" fill="#ff9c56" d="M 885.5,57.5 C 887.472,60.0836 888.472,63.0836 888.5,66.5C 886.69,63.855 885.69,60.855 885.5,57.5 Z"/></g>
<g><path style="opacity:0.416" fill="#ff9e5a" d="M 888.5,67.5 C 890.245,71.1997 891.245,75.1997 891.5,79.5C 889.502,75.8741 888.502,71.8741 888.5,67.5 Z"/></g>
<g><path style="opacity:1" fill="#727272" d="M 300.5,72.5 C 264.833,72.5 229.167,72.5 193.5,72.5C 193.5,149.167 193.5,225.833 193.5,302.5C 192.501,225.668 192.167,148.668 192.5,71.5C 228.671,71.1682 264.671,71.5016 300.5,72.5 Z"/></g>
<g><path style="opacity:1" fill="#676767" d="M 300.5,72.5 C 321.047,72.733 338.547,80.0664 353,94.5C 361.163,106.954 363.83,120.62 361,135.5C 358.605,148.454 352.438,159.288 342.5,168C 338.296,170.264 334.296,172.764 330.5,175.5C 365.262,184.331 380.762,206.664 377,242.5C 370.017,274.268 350.517,293.435 318.5,300C 314.469,300.481 310.469,301.147 306.5,302C 268.835,302.5 231.168,302.667 193.5,302.5C 193.5,225.833 193.5,149.167 193.5,72.5C 229.167,72.5 264.833,72.5 300.5,72.5 Z"/></g>
<g><path style="opacity:1" fill="#ffd0ae" d="M 160.5,69.5 C 160.59,72.1522 159.924,74.4855 158.5,76.5C 158.41,73.8478 159.076,71.5145 160.5,69.5 Z"/></g>
<g><path style="opacity:0.435" fill="#ff8934" d="M 131.5,76.5 C 131.523,170.923 131.523,265.257 131.5,359.5C 130.167,265.167 130.167,170.833 131.5,76.5 Z"/></g>
<g><path style="opacity:1" fill="#9f9f9f" d="M 282.5,114.5 C 271.833,114.5 261.167,114.5 250.5,114.5C 250.5,130.5 250.5,146.5 250.5,162.5C 249.504,146.342 249.17,130.009 249.5,113.5C 260.679,113.172 271.679,113.505 282.5,114.5 Z"/></g>
<g><path style="opacity:1" fill="#fdfdfd" d="M 282.5,114.5 C 296.303,115.969 302.97,123.636 302.5,137.5C 302.808,150.704 296.474,158.871 283.5,162C 272.505,162.5 261.505,162.667 250.5,162.5C 250.5,146.5 250.5,130.5 250.5,114.5C 261.167,114.5 271.833,114.5 282.5,114.5 Z"/></g>
<g><path style="opacity:1" fill="#676767" d="M 576.5,307.5 C 565.484,307.583 554.484,307.249 543.5,306.5C 511.707,300.547 490.541,282.214 480,251.5C 474.39,228.251 474.056,204.917 479,181.5C 493.026,142.963 520.692,123.63 562,123.5C 615.377,122.332 646.377,147.999 655,200.5C 657.946,228.378 651.946,254.044 637,277.5C 621.364,296.341 601.198,306.341 576.5,307.5 Z"/></g>
<g><path style="opacity:1" fill="#676767" d="M 781.5,130.5 C 798.756,129.515 816.09,129.181 833.5,129.5C 833.5,185.5 833.5,241.5 833.5,297.5C 829.463,338.534 807.129,361.868 766.5,367.5C 752.85,368.312 739.183,368.645 725.5,368.5C 710.764,367.889 696.431,365.556 682.5,361.5C 682.5,347.167 682.5,332.833 682.5,318.5C 684.833,318.5 687.167,318.5 689.5,318.5C 698.148,322.383 707.148,325.05 716.5,326.5C 722.601,327.972 728.935,328.639 735.5,328.5C 739.681,328.499 743.681,328.166 747.5,327.5C 769.968,324.846 780.968,312.013 780.5,289C 780.167,287.167 779.833,285.333 779.5,283.5C 751.046,304.289 721.712,305.789 691.5,288C 673.053,270.181 664.053,248.348 664.5,222.5C 664.373,211.148 664.706,199.815 665.5,188.5C 674.684,143.144 702.35,121.644 748.5,124C 753.833,125.333 759.167,126.667 764.5,128C 769.745,130.791 775.079,133.291 780.5,135.5C 780.216,133.585 780.549,131.919 781.5,130.5 Z"/></g>
<g><path style="opacity:1" fill="#7f7f7f" d="M 833.5,297.5 C 833.5,241.5 833.5,185.5 833.5,129.5C 816.09,129.181 798.756,129.515 781.5,130.5C 798.802,128.514 816.468,127.847 834.5,128.5C 834.832,185.002 834.499,241.336 833.5,297.5 Z"/></g>
<g><path style="opacity:1" fill="#fdfdfd" d="M 555.5,162.5 C 565.847,161.168 575.513,163.001 584.5,168C 593.53,177.239 598.364,188.406 599,201.5C 601.104,219.045 599.104,236.045 593,252.5C 584.917,265.656 573.084,271.156 557.5,269C 547.584,266.088 540.417,259.921 536,250.5C 529.464,229.362 528.797,208.028 534,186.5C 537.218,174.79 544.385,166.79 555.5,162.5 Z"/></g>
<g><path style="opacity:1" fill="#fcfcfc" d="M 750.5,163.5 C 755.511,163.334 760.511,163.501 765.5,164C 770.531,165.17 775.531,166.337 780.5,167.5C 780.833,194.508 780.5,221.508 779.5,248.5C 764.641,258.643 748.974,260.143 732.5,253C 724.392,245.28 720.226,235.78 720,224.5C 718.977,212.713 719.644,201.047 722,189.5C 726.989,175.669 736.489,167.002 750.5,163.5 Z"/></g>
<g><path style="opacity:1" fill="#ebebeb" d="M 289.5,203.5 C 276.833,203.5 264.167,203.5 251.5,203.5C 251.5,222.167 251.5,240.833 251.5,259.5C 263.833,259.5 276.167,259.5 288.5,259.5C 276.011,260.495 263.344,260.829 250.5,260.5C 250.5,241.167 250.5,221.833 250.5,202.5C 263.677,202.171 276.677,202.505 289.5,203.5 Z"/></g>
<g><path style="opacity:1" fill="#fefefe" d="M 289.5,203.5 C 312.85,205.832 321.683,218.499 316,241.5C 310.669,253.098 301.503,259.098 288.5,259.5C 276.167,259.5 263.833,259.5 251.5,259.5C 251.5,240.833 251.5,222.167 251.5,203.5C 264.167,203.5 276.833,203.5 289.5,203.5 Z"/></g>
<g><path style="opacity:1" fill="#929292" d="M 665.5,188.5 C 664.706,199.815 664.373,211.148 664.5,222.5C 663.834,218.012 663.501,213.346 663.5,208.5C 663.308,201.596 663.975,194.93 665.5,188.5 Z"/></g>
<g><path style="opacity:1" fill="#a6a6a6" d="M 400.5,61.5 C 400.5,141.833 400.5,222.167 400.5,302.5C 418.167,302.5 435.833,302.5 453.5,302.5C 453.5,222.167 453.5,141.833 453.5,61.5C 454.499,141.998 454.833,222.665 454.5,303.5C 436.167,303.5 417.833,303.5 399.5,303.5C 399.167,222.665 399.501,141.998 400.5,61.5 Z"/></g>
<g><path style="opacity:1" fill="#676767" d="M 400.5,61.5 C 418.167,61.5 435.833,61.5 453.5,61.5C 453.5,141.833 453.5,222.167 453.5,302.5C 435.833,302.5 418.167,302.5 400.5,302.5C 400.5,222.167 400.5,141.833 400.5,61.5 Z"/></g>
<g><path style="opacity:1" fill="#a3a3a3" d="M 543.5,306.5 C 554.484,307.249 565.484,307.583 576.5,307.5C 572.347,308.166 568.013,308.499 563.5,308.5C 556.602,308.654 549.936,307.987 543.5,306.5 Z"/></g>
<g><path style="opacity:1" fill="#939393" d="M 689.5,318.5 C 687.167,318.5 684.833,318.5 682.5,318.5C 682.5,332.833 682.5,347.167 682.5,361.5C 681.504,347.01 681.171,332.343 681.5,317.5C 684.385,317.194 687.052,317.527 689.5,318.5 Z"/></g>
<g><path style="opacity:1" fill="#d7d7d7" d="M 716.5,326.5 C 726.817,327.226 737.15,327.56 747.5,327.5C 743.681,328.166 739.681,328.499 735.5,328.5C 728.935,328.639 722.601,327.972 716.5,326.5 Z"/></g>
<g><path style="opacity:0.435" fill="#ff9d59" d="M 891.5,355.5 C 891.26,360.12 890.26,364.453 888.5,368.5C 888.485,364.44 888.985,360.44 890,356.5C 890.383,355.944 890.883,355.611 891.5,355.5 Z"/></g>
<g><path style="opacity:1" fill="#ff9751" d="M 863.5,360.5 C 863.655,363.716 862.655,366.383 860.5,368.5C 861.129,365.603 862.129,362.936 863.5,360.5 Z"/></g>
<g><path style="opacity:1" fill="#cfcfcf" d="M 766.5,367.5 C 765.048,368.302 763.382,368.802 761.5,369C 749.326,369.826 737.326,369.66 725.5,368.5C 739.183,368.645 752.85,368.312 766.5,367.5 Z"/></g>
<g><path style="opacity:0.484" fill="#ff934a" d="M 132.5,364.5 C 134.318,367.844 135.318,371.511 135.5,375.5C 133.126,372.314 132.126,368.647 132.5,364.5 Z"/></g>
<g><path style="opacity:0.231" fill="#ff9b55" d="M 888.5,369.5 C 888.741,371.898 888.074,373.898 886.5,375.5C 886.259,373.102 886.926,371.102 888.5,369.5 Z"/></g>
<g><path style="opacity:0.188" fill="#ff9953" d="M 135.5,376.5 C 137.873,378.579 139.206,381.246 139.5,384.5C 137.229,382.388 135.896,379.721 135.5,376.5 Z"/></g>
<g><path style="opacity:0.137" fill="#ff964e" d="M 884.5,380.5 C 883.921,383.331 882.588,385.664 880.5,387.5C 880.998,384.674 882.331,382.34 884.5,380.5 Z"/></g>
<g><path style="opacity:0.106" fill="#ffa362" d="M 880.5,388.5 C 880.068,389.71 879.401,390.71 878.5,391.5C 878.285,389.821 878.952,388.821 880.5,388.5 Z"/></g>
<g><path style="opacity:0.067" fill="#ff9045" d="M 878.5,391.5 C 876.831,394.83 874.498,397.497 871.5,399.5C 871.5,398.167 871.5,396.833 871.5,395.5C 872.552,395.649 873.552,395.483 874.5,395C 875.532,393.373 876.866,392.207 878.5,391.5 Z"/></g>
<g><path style="opacity:0.224" fill="#ffa86b" d="M 148.5,398.5 C 150.5,398.5 151.5,399.5 151.5,401.5C 150.167,400.833 149.167,399.833 148.5,398.5 Z"/></g>
<g><path style="opacity:0.02" fill="#ffa563" d="M 867.5,403.5 C 867.167,405.833 865.833,407.167 863.5,407.5C 864.5,405.833 865.833,404.5 867.5,403.5 Z"/></g>
<g><path style="opacity:0.914" fill="#ff893c" d="M 151.5,401.5 C 153.886,402.373 155.886,403.873 157.5,406C 161.867,406.942 164.867,409.442 166.5,413.5C 165.078,413.291 163.745,412.791 162.5,412C 158.376,408.945 154.709,405.445 151.5,401.5 Z"/></g>
<g><path style="opacity:0.039" fill="#ffa363" d="M 860.5,410.5 C 859.205,411.488 857.872,412.488 856.5,413.5C 856.694,411.088 858.027,410.088 860.5,410.5 Z"/></g>
<g><path style="opacity:0.129" fill="#ffa567" d="M 171.5,416.5 C 173.027,416.427 174.027,417.094 174.5,418.5C 172.973,418.573 171.973,417.906 171.5,416.5 Z"/></g>
<g><path style="opacity:0.024" fill="#ffa463" d="M 174.5,418.5 C 176.403,418.796 178.07,419.463 179.5,420.5C 177.302,420.88 175.635,420.213 174.5,418.5 Z"/></g>
<g><path style="opacity:0.957" fill="#ff893c" d="M 850.5,416.5 C 846.2,419.453 841.534,421.953 836.5,424C 834.866,424.494 833.199,424.66 831.5,424.5C 835.933,421.29 840.933,419.124 846.5,418C 846.167,417.667 845.833,417.333 845.5,417C 847.134,416.506 848.801,416.34 850.5,416.5 Z"/></g>
<g><path style="opacity:0.247" fill="#ff9852" d="M 183.5,422.5 C 186.152,422.41 188.485,423.076 190.5,424.5C 187.772,424.829 185.438,424.163 183.5,422.5 Z"/></g>
<g><path style="opacity:0.659" fill="#ff8e42" d="M 190.5,424.5 C 192.848,424.67 195.182,425.003 197.5,425.5C 199.03,425.64 200.03,426.307 200.5,427.5C 196.838,427.277 193.505,426.277 190.5,424.5 Z"/></g>
<g><path style="opacity:0.635" fill="#ff954d" d="M 828.5,425.5 C 826.401,426.612 824.067,427.279 821.5,427.5C 823.279,425.656 825.612,424.99 828.5,425.5 Z"/></g>
<g><path style="opacity:0.004" fill="#ff7f2a" d="M 207.5,428.5 C 323.665,427.5 439.999,427.167 556.5,427.5C 556.737,428.791 556.404,429.791 555.5,430.5C 439.646,429.826 323.646,429.159 207.5,428.5 Z"/></g>
<g><path style="opacity:0.004" fill="#ff812e" d="M 813.5,428.5 C 795.213,429.474 776.88,429.807 758.5,429.5C 758.611,428.883 758.944,428.383 759.5,428C 777.671,427.171 795.671,427.338 813.5,428.5 Z"/></g>
<g><path style="opacity:0.114" fill="#ff9a54" d="M 728.5,450.5 C 726.469,452.522 724.135,454.189 721.5,455.5C 722.948,452.736 725.281,451.069 728.5,450.5 Z"/></g>
<g><path style="opacity:0.835" fill="#ff8a3c" d="M 550.5,454.5 C 551.018,459.939 550.018,464.939 547.5,469.5C 547.421,464.169 548.421,459.169 550.5,454.5 Z"/></g>
<g><path style="opacity:0.008" fill="#ff9a54" d="M 696.5,472.5 C 695.599,474.727 693.933,475.727 691.5,475.5C 692.67,473.721 694.336,472.721 696.5,472.5 Z"/></g>
<g><path style="opacity:0.967" fill="#ff8333" d="M 547.5,470.5 C 547.947,476.764 546.947,482.764 544.5,488.5C 544.043,489.298 543.376,489.631 542.5,489.5C 543.721,482.943 545.388,476.61 547.5,470.5 Z"/></g>
<g><path style="opacity:0.175" fill="#ffa666" d="M 689.5,477.5 C 688.564,478.974 687.23,479.974 685.5,480.5C 686.035,478.554 687.368,477.554 689.5,477.5 Z"/></g>
<g><path style="opacity:0.016" fill="#ffa261" d="M 677.5,485.5 C 677.027,486.906 676.027,487.573 674.5,487.5C 674.973,486.094 675.973,485.427 677.5,485.5 Z"/></g>
<g><path style="opacity:0.004" fill="#ffa667" d="M 664.5,494.5 C 664.027,495.906 663.027,496.573 661.5,496.5C 661.973,495.094 662.973,494.427 664.5,494.5 Z"/></g>
<g><path style="opacity:0.129" fill="#ff9a55" d="M 661.5,496.5 C 659.853,498.326 657.853,499.66 655.5,500.5C 656.802,498.178 658.802,496.845 661.5,496.5 Z"/></g>
<g><path style="opacity:0.004" fill="#ff9b55" d="M 642.5,509.5 C 641.198,511.822 639.198,513.155 636.5,513.5C 638.147,511.674 640.147,510.34 642.5,509.5 Z"/></g>
<g><path style="opacity:0.024" fill="#ffa160" d="M 634.5,515.5 C 633.486,516.674 632.153,517.34 630.5,517.5C 631.287,515.896 632.62,515.229 634.5,515.5 Z"/></g>
<g><path style="opacity:0.047" fill="#ffaa6d" d="M 621.5,524.5 C 620.71,525.401 619.71,526.068 618.5,526.5C 618.821,524.952 619.821,524.285 621.5,524.5 Z"/></g>
<g><path style="opacity:0.651" fill="#ff8d40" d="M 537.5,517.5 C 538.018,522.939 537.018,527.939 534.5,532.5C 534.625,527.206 535.625,522.206 537.5,517.5 Z"/></g>
<g><path style="opacity:1" fill="#ffd7b9" d="M 563.5,525.5 C 563.025,528.082 563.692,530.082 565.5,531.5C 564.312,532.364 563.145,533.364 562,534.5C 561.424,531.228 561.924,528.228 563.5,525.5 Z"/></g>
<g><path style="opacity:0.943" fill="#ff8c40" d="M 607.5,533.5 C 605.45,535.547 603.117,537.214 600.5,538.5C 601.305,536.787 602.305,535.121 603.5,533.5C 604.726,534.363 606.06,534.363 607.5,533.5 Z"/></g>
<g><path style="opacity:0.012" fill="#ff9d58" d="M 575.5,555.5 C 574.198,557.822 572.198,559.155 569.5,559.5C 571.147,557.674 573.147,556.34 575.5,555.5 Z"/></g>
<g><path style="opacity:0.802" fill="#ff8b3f" d="M 533.5,537.5 C 532.394,545.955 531.394,554.455 530.5,563C 530.481,566.024 531.147,568.858 532.5,571.5C 529.478,569.414 528.145,566.414 528.5,562.5C 529.442,553.891 531.108,545.558 533.5,537.5 Z"/></g>
<g><path style="opacity:0.055" fill="#ffaa6f" d="M 554.5,570.5 C 553.71,571.401 552.71,572.068 551.5,572.5C 551.821,570.952 552.821,570.285 554.5,570.5 Z"/></g>
<g><path style="opacity:0.059" fill="#ffb37b" d="M 547.5,574.5 C 546.003,575.306 544.336,575.972 542.5,576.5C 541.893,576.376 541.56,576.043 541.5,575.5C 543.265,574.539 545.265,574.205 547.5,574.5 Z"/></g>
</svg>
